# xmcd
#
# Track frame offsets: 
#        150
#        16438
#        34514
#        45915
#        61367
#        80117
#        93543
#        114994
#        127895
#        146421
#
# Disc length: 2119 seconds
#
# Revision: 3
# Processed by: cddbd v1.5.2PL0 Copyright (c) Steve Scherf et al.
# Submitted via: ExactAudioCopy v1.3
#
DISCID=7908450a
DTITLE=Townes Van Zandt - Delta Momma Blues
DYEAR=1971
DGENRE=Folk
TTITLE0=FFV
TTITLE1=Delta Momma Blues
TTITLE2=Only Him or Me
TTITLE3=Turnstyled, Junkpiled
TTITLE4=Tower Song
TTITLE5=Come Tomorrow
TTITLE6=Brand New Companion
TTITLE7=Where I Lead Me
TTITLE8=Rake
TTITLE9=Nothin'
EXTD=
EXTT0=
EXTT1=
EXTT2=
EXTT3=
EXTT4=
EXTT5=
EXTT6=
EXTT7=
EXTT8=
EXTT9=
PLAYORDER=
